<svg width="9" height="18" viewBox="0 0 9 18" fill="none" xmlns="http://www.w3.org/2000/svg">
<path d="M8.00019 8.99996C7.99358 8.87532 8.0745 9.09336 8.00019 8.99996L2.00019 0.99996C1.91323 0.884262 2.13512 1.01071 2.00019 0.99996C1.86528 0.989206 1.10096 0.89942 1.00019 0.99996C0.899415 1.10063 1.00542 1.8493 1.00019 1.99996C0.994853 2.15077 0.906846 1.89086 1.00019 1.99996L7.00019 8.99996L1.00019 16C0.906847 16.1091 0.994854 15.8491 1.00019 16C1.00542 16.1506 0.899416 16.8993 1.00019 17C1.10097 17.1005 1.86529 17.0107 2.00019 17C2.13511 16.9892 1.91323 17.1157 2.00019 17L8.00019 8.99996C8.0089 9.14857 8.08878 8.88867 8.00019 8.99996Z" fill="#A3A3A3"/>
</svg>
