<svg width="9" height="18" viewBox="0 0 9 18" fill="none" xmlns="http://www.w3.org/2000/svg">
<path d="M0.999805 9.00004C1.00642 9.12467 0.925497 8.90664 0.999805 9.00004L6.9998 17C7.08677 17.1157 6.86488 16.9893 6.9998 17C7.13472 17.0108 7.89903 17.1006 7.9998 17C8.10058 16.8994 7.99458 16.1507 7.9998 16C8.00515 15.8492 8.09315 16.1091 7.9998 16L1.9998 9.00004L7.99981 2.00004C8.09315 1.89095 8.00515 2.15086 7.99981 2.00004C7.99458 1.84936 8.10058 1.1007 7.99981 1.00004C7.89903 0.899503 7.13471 0.989287 6.99981 1.00004C6.86489 1.01079 7.08677 0.884346 6.99981 1.00004L0.999805 9.00004C0.991096 8.85143 0.911215 9.11133 0.999805 9.00004Z" fill="#E8E8E8"/>
</svg>
